<svg xmlns="http://www.w3.org/2000/svg" viewBox="0 0 420 80" width="420" height="80">

  <!-- C -->
  <rect x="10" y="20" width="10" height="40" fill="#22D3EE"/>
  <rect x="10" y="20" width="30" height="10" fill="#22D3EE"/>
  <rect x="10" y="50" width="30" height="10" fill="#22D3EE"/>

  <!-- H -->
  <rect x="50" y="20" width="10" height="40" fill="#22D3EE"/>
  <rect x="80" y="20" width="10" height="40" fill="#22D3EE"/>
  <rect x="50" y="40" width="40" height="10" fill="#22D3EE"/>

  <!-- A -->
  <rect x="110" y="20" width="10" height="40" fill="#22D3EE"/>
  <rect x="140" y="20" width="10" height="40" fill="#22D3EE"/>
  <rect x="110" y="20" width="40" height="10" fill="#22D3EE"/>
  <rect x="110" y="40" width="40" height="10" fill="#22D3EE"/>

  <!-- T -->
  <rect x="170" y="20" width="40" height="10" fill="#22D3EE"/>
  <rect x="190" y="20" width="10" height="40" fill="#22D3EE"/>

  <!-- I -->
  <rect x="230" y="20" width="10" height="40" fill="#7C3AED"/>

  <!-- F -->
  <rect x="260" y="20" width="10" height="40" fill="#7C3AED"/>
  <rect x="260" y="20" width="30" height="10" fill="#7C3AED"/>
  <rect x="260" y="40" width="25" height="10" fill="#7C3AED"/>

  <!-- Y -->
  <rect x="310" y="20" width="10" height="20" fill="#7C3AED"/>
  <rect x="340" y="20" width="10" height="20" fill="#7C3AED"/>
  <rect x="325" y="40" width="10" height="20" fill="#7C3AED"/>

</svg>
